<?xml version="1.0" standalone="no"?>
<!DOCTYPE svg PUBLIC "-//W3C//DTD SVG 20010904//EN"
 "http://www.w3.org/TR/2001/REC-SVG-20010904/DTD/svg10.dtd">
<svg version="1.0" xmlns="http://www.w3.org/2000/svg"
 width="140.000000pt" height="140.000000pt" viewBox="0 0 140.000000 140.000000"
 preserveAspectRatio="xMidYMid meet">
<metadata>
Created by potrace 1.11, written by Peter Selinger 2001-2013
</metadata>
<g transform="translate(0.000000,140.000000) scale(0.100000,-0.100000)"
fill="#000000" stroke="none">
<path d="M0 1085 c0 -203 4 -315 10 -315 6 0 10 5 10 10 0 27 84 100 133 116
48 16 54 16 103 -1 29 -10 59 -15 67 -12 14 5 41 38 192 228 25 31 45 62 45
69 0 6 -9 23 -20 37 -21 27 -17 47 15 73 12 10 21 10 41 1 36 -16 38 -14 14
16 -16 21 -20 35 -15 60 l6 33 -301 0 -300 0 0 -315z"/>
<path d="M680 1386 c0 -21 25 -26 58 -14 24 9 34 9 46 -1 35 -29 19 -63 -89
-198 -58 -72 -105 -138 -105 -147 0 -28 196 -350 221 -363 14 -8 64 -13 120
-13 118 0 110 -8 239 220 74 131 136 174 195 136 13 -9 27 -16 30 -16 3 0 5
92 5 205 l0 205 -360 0 c-301 0 -360 -2 -360 -14z m309 -341 c65 -33 109 -122
96 -194 -16 -87 -90 -161 -161 -161 -103 0 -196 129 -165 229 34 114 141 173
230 126z"/>
<path d="M875 925 c-14 -13 -25 -33 -25 -44 0 -26 47 -81 70 -81 28 0 59 32
66 67 5 26 1 37 -19 57 -33 33 -61 33 -92 1z"/>
<path d="M500 913 c0 -11 11 -37 25 -57 14 -20 25 -39 25 -42 0 -4 107 -190
140 -244 5 -8 36 -62 70 -120 l60 -105 0 -115 c0 -77 4 -120 12 -128 12 -12
143 -17 172 -6 13 5 16 26 16 121 l0 116 61 111 c34 61 67 118 74 126 8 8 18
26 24 40 6 14 15 32 21 40 5 8 37 61 70 118 56 97 72 142 51 142 -5 0 -51 -71
-101 -157 -119 -202 -118 -201 -189 -205 l-56 -3 -3 -169 c-2 -140 -5 -173
-19 -188 -9 -10 -24 -18 -33 -18 -38 0 -45 27 -50 204 l-5 171 -60 5 c-56 5
-61 7 -86 45 -15 22 -38 60 -51 85 -13 25 -36 64 -51 87 -15 24 -27 45 -27 47
0 9 -59 93 -75 106 -13 10 -15 9 -15 -7z"/>
<path d="M400 803 c0 -5 9 -33 21 -63 17 -43 20 -70 16 -122 -5 -81 -35 -133
-99 -175 -35 -24 -51 -28 -108 -27 -89 2 -152 40 -191 117 -11 20 -24 37 -29
37 -6 0 -10 -106 -10 -285 l0 -285 354 0 354 0 6 23 c3 12 6 83 6 157 l0 135
-40 70 c-22 39 -45 77 -50 85 -20 31 -148 257 -169 298 -14 28 -28 42 -41 42
-11 0 -20 -3 -20 -7z"/>
<path d="M180 789 c-14 -6 -37 -22 -52 -36 -55 -52 -31 -167 44 -213 51 -31
94 -26 134 14 30 30 34 40 34 83 -1 60 -26 112 -65 134 -43 24 -67 29 -95 18z"/>
<path d="M1252 538 l-132 -233 0 -121 c0 -67 3 -136 6 -153 l7 -31 133 0 134
0 0 385 c0 212 -4 385 -8 385 -4 0 -67 -105 -140 -232z"/>
</g>
</svg>
